nColumns=19
nRows=50
DataType=double
version=3
OpenSimVersion=4.1
endheader
time	ground_force_calcn_r_vx	ground_force_calcn_r_vy	ground_force_calcn_r_vz	ground_force_calcn_r_px	ground_force_calcn_r_py	ground_force_calcn_r_pz	ground_force_calcn_r_mx	ground_force_calcn_r_my	ground_force_calcn_r_mz	ground_force_calcn_l_vx	ground_force_calcn_l_vy	ground_force_calcn_l_vz	ground_force_calcn_l_px	ground_force_calcn_l_py	ground_force_calcn_l_pz	ground_force_calcn_l_mx	ground_force_calcn_l_my	ground_force_calcn_l_mz
3.34	18.4378	416.008	-34.2697	-0.282651	0	-0.423414	-0.0498565	-1.1249	0.0926668	-4.36931	176.632	27.8064	-0.120744	0	-0.786295	0.00248983	-0.100653	-0.0158454
3.35	18.9281	421.271	-34.2782	-0.283299	0	-0.423546	-0.0500609	-1.11418	0.0906588	-4.31222	178.345	28.0855	-0.121266	0	-0.786414	0.00233846	-0.096714	-0.0152304
3.36	19.4807	425.888	-34.174	-0.284015	0	-0.423715	-0.0500748	-1.09474	0.0878436	-4.21456	179.617	28.3847	-0.121748	0	-0.786548	0.00233797	-0.0996398	-0.015746
3.37	20.0607	429.79	-33.9832	-0.284782	0	-0.423913	-0.0498558	-1.06814	0.0844567	-4.07832	180.442	28.6857	-0.12219	0	-0.786694	0.00246074	-0.108874	-0.0173081
3.38	20.6213	432.952	-33.7396	-0.285574	0	-0.424125	-0.0493634	-1.0364	0.0807661	-3.91568	180.849	28.9721	-0.12259	0	-0.786847	0.00267499	-0.123546	-0.0197922
3.39	21.1135	435.403	-33.479	-0.286369	0	-0.424343	-0.0485832	-1.00188	0.0770366	-3.74787	180.889	29.2321	-0.122945	0	-0.787004	0.00295844	-0.142788	-0.0230749
3.4	21.4964	437.217	-33.2328	-0.287139	0	-0.424557	-0.0475426	-0.966973	0.0734995	-3.60203	180.634	29.4612	-0.123251	0	-0.787162	0.00330969	-0.165974	-0.0270702
3.41	21.7426	438.5	-33.0239	-0.287866	0	-0.424759	-0.0463052	-0.933874	0.070331	-3.50709	180.166	29.6621	-0.123507	0	-0.787322	0.00374961	-0.192625	-0.0317132
3.42	21.8396	439.366	-32.8651	-0.288533	0	-0.424946	-0.0449504	-0.904308	0.0676432	-3.48779	179.573	29.8429	-0.123709	0	-0.787485	0.00431817	-0.222326	-0.036948
3.43	21.7877	439.919	-32.7623	-0.289131	0	-0.425112	-0.043558	-0.87949	0.0654987	-3.55889	178.936	30.0138	-0.123859	0	-0.787652	0.00506586	-0.254704	-0.0427228
3.44	21.5966	440.248	-32.7174	-0.289654	0	-0.425257	-0.0421979	-0.860206	0.063927	-3.72423	178.325	30.1841	-0.12396	0	-0.787824	0.00604513	-0.289456	-0.0489945
3.45	21.2818	440.431	-32.7285	-0.290102	0	-0.425379	-0.0409255	-0.846962	0.0629378	-3.97942	177.795	30.3614	-0.124018	0	-0.787999	0.00730251	-0.326266	-0.0557154
3.46	20.863	440.538	-32.7899	-0.290475	0	-0.42548	-0.0397872	-0.840137	0.0625326	-4.31383	177.382	30.5504	-0.124043	0	-0.788174	0.00886473	-0.364512	-0.0627797
3.47	20.3649	440.631	-32.8934	-0.290779	0	-0.425558	-0.0388325	-0.840211	0.0627223	-4.71048	177.107	30.7502	-0.124046	0	-0.788347	0.0107198	-0.403048	-0.0699791
3.48	19.8142	440.763	-33.0291	-0.291016	0	-0.425617	-0.0381087	-0.84772	0.0635249	-5.14598	176.98	30.9547	-0.124043	0	-0.788512	0.0128041	-0.440357	-0.0770208
3.49	19.2342	440.975	-33.1875	-0.291191	0	-0.425659	-0.0376429	-0.863023	0.0649506	-5.59312	176.999	31.153	-0.124046	0	-0.788661	0.0149991	-0.474658	-0.0835431
3.5	18.6423	441.285	-33.361	-0.291306	0	-0.425684	-0.0374365	-0.886166	0.0669938	-6.02574	177.159	31.3323	-0.124073	0	-0.788789	0.0171431	-0.504015	-0.0891397
3.51	18.0525	441.69	-33.5424	-0.291368	0	-0.425696	-0.0374718	-0.916821	0.0696243	-6.42332	177.454	31.4803	-0.124131	0	-0.788893	0.0190599	-0.526561	-0.0934116
3.52	17.4789	442.166	-33.723	-0.291383	0	-0.425697	-0.0377239	-0.954305	0.0727828	-6.77291	177.872	31.5872	-0.124234	0	-0.788971	0.0205867	-0.540653	-0.0960113
3.53	16.9353	442.678	-33.8946	-0.291357	0	-0.42569	-0.0381671	-0.997666	0.0763885	-7.0684	178.392	31.6462	-0.124387	0	-0.789022	0.0215936	-0.544979	-0.0966776
3.54	16.4318	443.191	-34.0495	-0.291299	0	-0.425676	-0.038772	-1.04574	0.0803423	-7.30912	178.988	31.6546	-0.124593	0	-0.789049	0.022005	-0.538866	-0.0953002
3.55	15.9723	443.684	-34.1811	-0.291213	0	-0.425658	-0.0394994	-1.09723	0.0845296	-7.49819	179.628	31.6146	-0.124849	0	-0.789057	0.0218106	-0.522499	-0.0919601
3.56	15.5518	444.149	-34.2846	-0.291101	0	-0.425635	-0.0402923	-1.15072	0.0888263	-7.64032	180.278	31.5339	-0.12515	0	-0.789048	0.021065	-0.49704	-0.0869415
3.57	15.1589	444.593	-34.359	-0.290965	0	-0.425606	-0.0410864	-1.20501	0.0931256	-7.74041	180.906	31.4251	-0.125488	0	-0.789031	0.0198754	-0.464521	-0.080692
3.58	14.7808	445.03	-34.4071	-0.290803	0	-0.42557	-0.0418183	-1.25909	0.0973457	-7.80375	181.481	31.3042	-0.125849	0	-0.789016	0.0183834	-0.427518	-0.0737437
3.59	14.4051	445.465	-34.4355	-0.290615	0	-0.425524	-0.0424301	-1.31212	0.10143	-7.83567	181.98	31.1884	-0.126216	0	-0.789007	0.0167435	-0.388859	-0.0666444
3.6	14.0212	445.892	-34.4531	-0.2904	0	-0.425469	-0.0428725	-1.36339	0.105347	-7.84151	182.379	31.0938	-0.12658	0	-0.789012	0.015107	-0.351362	-0.0599034
3.61	13.6213	446.289	-34.4695	-0.290162	0	-0.4254	-0.0431042	-1.41226	0.109077	-7.82643	182.666	31.032	-0.126925	0	-0.789032	0.0136082	-0.317612	-0.053957
3.62	13.2009	446.631	-34.4931	-0.289903	0	-0.425318	-0.0430878	-1.45781	0.112586	-7.79406	182.831	31.0096	-0.127242	0	-0.78907	0.0123509	-0.289724	-0.0491395
3.63	12.7593	446.901	-34.5303	-0.289632	0	-0.425224	-0.0427952	-1.49892	0.115816	-7.74645	182.869	31.0274	-0.127522	0	-0.789124	0.0113973	-0.269053	-0.0456502
3.64	12.3007	447.098	-34.5849	-0.289355	0	-0.425119	-0.0422172	-1.53449	0.118699	-7.68584	182.776	31.0803	-0.127757	0	-0.789191	0.0107684	-0.256081	-0.0435456
3.65	11.834	447.244	-34.6568	-0.289077	0	-0.425005	-0.0413669	-1.56339	0.121146	-7.61653	182.551	31.1591	-0.127945	0	-0.789266	0.0104546	-0.250574	-0.0427697
3.66	11.3727	447.377	-34.7418	-0.288804	0	-0.424884	-0.0402797	-1.58451	0.123048	-7.54418	182.195	31.251	-0.128086	0	-0.789338	0.0104188	-0.251618	-0.0431588
3.67	10.9311	447.537	-34.832	-0.288537	0	-0.424762	-0.0390036	-1.59687	0.124285	-7.4736	181.719	31.3416	-0.12818	0	-0.789399	0.010602	-0.257785	-0.0444607
3.68	10.521	447.749	-34.917	-0.288281	0	-0.424641	-0.0375906	-1.59977	0.124755	-7.40737	181.153	31.4185	-0.128233	0	-0.789441	0.0109343	-0.267407	-0.0463782
3.69	10.1486	448.023	-34.9852	-0.288031	0	-0.424523	-0.0360841	-1.59298	0.124392	-7.34525	180.535	31.4737	-0.128255	0	-0.789458	0.011348	-0.278916	-0.048625
3.7	9.81172	448.344	-35.0272	-0.287785	0	-0.424412	-0.0345075	-1.57681	0.123189	-7.28311	179.918	31.5052	-0.128257	0	-0.789446	0.0117813	-0.29104	-0.0509635
3.71	9.50167	448.676	-35.0374	-0.287542	0	-0.424309	-0.0328692	-1.55211	0.121205	-7.21228	179.355	31.5167	-0.12825	0	-0.789406	0.0121816	-0.302932	-0.0532318
3.72	9.20894	448.974	-35.0137	-0.287298	0	-0.424213	-0.0311804	-1.52017	0.118552	-7.12132	178.894	31.5166	-0.12825	0	-0.789342	0.0125089	-0.314235	-0.0553602
3.73	8.92673	449.199	-34.958	-0.287053	0	-0.424124	-0.0294614	-1.48252	0.115374	-6.99889	178.573	31.5162	-0.128268	0	-0.789259	0.0127394	-0.325038	-0.0573657
3.74	8.65016	449.327	-34.8762	-0.286804	0	-0.424039	-0.0277355	-1.44071	0.111826	-6.83659	178.416	31.5269	-0.12831	0	-0.789162	0.0128641	-0.335717	-0.0593228
3.75	8.37676	449.35	-34.7777	-0.286551	0	-0.423956	-0.02603	-1.39631	0.108069	-6.6299	178.435	31.5577	-0.128383	0	-0.789056	0.0128832	-0.346734	-0.0613227
3.76	8.1093	449.275	-34.6747	-0.286298	0	-0.423871	-0.0243819	-1.35082	0.104255	-6.37878	178.631	31.6129	-0.128488	0	-0.788944	0.0127969	-0.358365	-0.0634209
3.77	7.85811	449.133	-34.5806	-0.286049	0	-0.423783	-0.0228403	-1.30545	0.100512	-6.0884	178.996	31.6919	-0.12862	0	-0.78883	0.0126058	-0.370603	-0.0656165
3.78	7.63984	448.971	-34.5078	-0.28581	0	-0.423691	-0.0214601	-1.26114	0.0969313	-5.76862	179.511	31.7896	-0.128775	0	-0.788715	0.0123084	-0.38302	-0.0678288
3.79	7.47301	448.853	-34.4668	-0.28559	0	-0.423592	-0.0202885	-1.21859	0.0935743	-5.43248	180.153	31.8986	-0.128946	0	-0.788602	0.0119047	-0.394785	-0.0699021
3.8	7.37524	448.844	-34.4641	-0.285395	0	-0.42349	-0.0193614	-1.1783	0.0904747	-5.09465	180.892	32.0114	-0.129126	0	-0.788492	0.011405	-0.404948	-0.0716613
3.81	7.3638	449.01	-34.4995	-0.285233	0	-0.423385	-0.018707	-1.14067	0.0876424	-4.77045	181.698	32.123	-0.129309	0	-0.78839	0.0108371	-0.412767	-0.0729743
3.82	7.45413	449.412	-34.5658	-0.285111	0	-0.423281	-0.0183461	-1.10609	0.0850734	-4.47469	182.538	32.2317	-0.129488	0	-0.788298	0.010243	-0.417849	-0.0737818
3.83	7.65569	450.097	-34.6493	-0.285037	0	-0.423184	-0.0182855	-1.07505	0.0827592	-4.21928	183.377	32.3395	-0.12966	0	-0.788221	0.00967022	-0.420285	-0.0741193
